<svg width="189" height="189" viewBox="0 0 189 189" version="1.1" xmlns="http://www.w3.org/2000/svg" xmlns:xlink="http://www.w3.org/1999/xlink" role="img" aria-labelledby="natural-california-beauty">
    <!-- Generator: Sketch 50.2 (55047) - http://www.bohemiancoding.com/sketch -->
    <title id="natural-california-beauty">NATURAL CALIFORNIA BEAUTY</title>
    <desc>Created with Sketch.</desc>
    <defs></defs>
    <g id="00-modules" stroke="none" stroke-width="1" fill="none" fill-rule="evenodd">
        <g id="00-module-03-CenterAligned" transform="translate(-1186.000000, -3370.000000)" fill="#C67732">
            <path d="M1374.33033,3450.82318 L1375,3456.85019 L1373.87183,3456.97502 L1373.34683,3452.21852 L1370.01133,3452.58368 L1370.506,3457.05202 L1369.379,3457.17685 L1368.882,3452.70852 L1364.58167,3453.18335 L1364.4405,3451.91402 L1374.33033,3450.82318 Z M1360.93467,3437.57685 L1360.5205,3436.36701 L1369.94133,3433.14235 L1370.35783,3434.35101 L1360.93467,3437.57685 Z M1359.93367,3412.80734 L1360.5975,3413.89934 L1353.08533,3418.46918 L1355.729,3422.78935 L1354.7455,3423.38785 L1351.43917,3417.97684 L1359.93367,3412.80734 Z M1346.258,3396.40284 L1336.5245,3400.80351 L1337.4555,3401.70767 L1340.3605,3400.35551 L1343.297,3403.20917 L1342.02767,3406.15501 L1342.9575,3407.05684 L1347.11783,3397.23584 L1346.258,3396.40284 Z M1343.76483,3402.10784 L1341.44317,3399.84801 L1345.5685,3397.94401 L1343.76483,3402.10784 Z M1327.67067,3382.31184 C1329.4895,3383.34667 1330.08567,3385.08267 1329.52333,3386.884 L1328.422,3386.25984 C1328.64133,3385.0605 1328.29833,3383.99067 1327.10017,3383.3105 C1325.45167,3382.37367 1323.5465,3383.13434 1322.37283,3385.19 C1321.20733,3387.22817 1321.50833,3389.25817 1323.16967,3390.20317 C1324.37017,3390.88217 1325.46567,3390.63017 1326.3955,3389.81934 L1327.49333,3390.44234 C1326.21933,3391.861 1324.4075,3392.22617 1322.60033,3391.1995 C1320.41633,3389.95934 1319.72917,3387.23984 1321.25983,3384.5565 C1322.794,3381.87084 1325.48783,3381.07284 1327.67067,3382.31184 Z M1286.25517,3370.09917 L1285.58433,3378.86084 L1290.64417,3379.24584 L1290.56017,3380.39267 L1284.21817,3379.90734 L1284.98,3370 L1286.25517,3370.09917 Z M1264.82,3371.26117 L1263.637,3371.46767 L1261.50783,3381.92334 L1262.78767,3381.7005 L1263.38967,3378.55634 L1267.43333,3377.854 L1269.08417,3380.6085 L1270.3605,3380.3845 L1264.82,3371.26117 Z M1263.61483,3377.38267 L1264.48283,3372.92833 L1266.81033,3376.82733 L1263.61483,3377.38267 Z M1247.6875,3386.43367 L1249.014,3385.827 L1244.5795,3383.1705 C1245.90717,3382.33634 1246.40067,3381.08217 1245.71583,3379.583 C1244.93767,3377.8715 1243.36967,3377.483 1241.559,3378.309 L1238.1955,3379.83734 L1242.32083,3388.87084 L1243.48633,3388.3435 L1241.7375,3384.51567 L1243.3475,3383.7865 L1247.6875,3386.43367 Z M1241.28717,3383.52867 L1239.82183,3380.325 L1241.99067,3379.338 C1243.18417,3378.79317 1244.1105,3379.1035 1244.569,3380.10217 C1245.02633,3381.102 1244.65067,3382.00034 1243.45717,3382.544 L1241.28717,3383.52867 Z M1217.62017,3393.69617 L1218.599,3392.89701 L1222.2985,3397.41784 C1223.64133,3399.06167 1225.05767,3399.17834 1226.3025,3398.16801 C1227.545,3397.15417 1227.71183,3395.74717 1226.3655,3394.10684 L1222.66717,3389.5825 L1223.65767,3388.77517 L1227.461,3393.41967 C1229.183,3395.52667 1228.77817,3397.61151 1227.02117,3399.04417 C1225.27467,3400.46751 1223.14667,3400.44884 1221.41183,3398.33134 L1217.62017,3393.69617 Z M1201.52133,3412.16101 L1206.356,3405.52617 L1207.27417,3406.19351 L1205.23367,3408.99468 L1212.36783,3414.17351 L1211.613,3415.20484 L1204.48233,3410.02718 L1202.4395,3412.82718 L1201.52133,3412.16101 Z M1203.07533,3429.89318 L1203.56067,3428.69268 L1192.86933,3428.57368 L1192.4225,3429.68668 L1200.19717,3437.00401 L1200.686,3435.80468 L1198.3235,3433.63351 L1199.86117,3429.83601 L1203.07533,3429.89318 Z M1197.44617,3432.82618 L1194.113,3429.73918 L1198.6595,3429.82435 L1197.44617,3432.82618 Z M1186.9275,3449.20852 L1196.81267,3450.40085 L1196.6995,3451.33068 L1188.17583,3455.89352 L1196.03567,3456.83969 L1195.88633,3458.06002 L1186,3456.87119 L1186.14583,3455.66602 L1194.302,3451.31902 L1186.7805,3450.41252 L1186.9275,3449.20852 Z M1373.42967,3477.10119 C1373.1695,3479.01102 1371.37633,3480.07036 1369.064,3479.76119 C1366.7505,3479.44502 1365.30033,3477.94469 1365.55933,3476.03719 C1365.82067,3474.14719 1367.61617,3473.08319 1369.92733,3473.39936 C1372.24083,3473.71202 1373.68867,3475.21352 1373.42967,3477.10119 Z M1364.42067,3475.88436 C1364.06833,3478.47902 1365.91983,3480.62336 1368.89017,3481.02469 C1371.87683,3481.42952 1374.21483,3479.85569 1374.5695,3477.25752 C1374.92067,3474.67919 1373.08667,3472.53836 1370.1,3472.13352 C1367.12967,3471.72869 1364.77067,3473.30252 1364.42067,3475.88436 Z M1367.80167,3498.42436 L1366.88467,3500.61886 C1366.38183,3501.8287 1365.49517,3502.2312 1364.47433,3501.80886 C1363.45817,3501.38886 1363.1175,3500.47653 1363.6215,3499.2667 L1364.53617,3497.06986 L1367.80167,3498.42436 Z M1362.85733,3498.28436 L1357.8675,3499.2947 L1357.311,3500.63986 L1362.37317,3499.57003 C1361.9695,3501.08553 1362.46533,3502.3432 1363.99133,3502.97436 C1365.72733,3503.6942 1367.14133,3502.91136 1367.90433,3501.07736 L1369.323,3497.67419 L1360.1355,3493.86153 L1359.64433,3495.04219 L1363.534,3496.65219 L1362.85733,3498.28436 Z M1353.57183,3524.8202 L1354.30917,3523.8542 L1348.28333,3519.28087 L1357.51867,3519.64487 L1358.25367,3518.68237 L1350.3355,3512.6682 L1349.59,3513.6482 L1355.883,3518.42687 L1346.22417,3518.06053 L1345.6525,3518.80603 L1353.57183,3524.8202 Z M1340.57167,3537.63137 L1341.55633,3536.8147 L1335.1945,3529.1742 L1334.20633,3529.99554 L1340.57167,3537.63137 Z M1322.58283,3547.44304 L1319.22633,3544.39221 L1322.12083,3542.93504 L1322.58283,3547.44304 Z M1323.823,3548.59454 L1322.80683,3537.98604 L1321.65067,3538.5682 L1321.99017,3541.74854 L1318.3315,3543.59071 L1315.9515,3541.43937 L1314.79533,3542.02387 L1322.75317,3549.13354 L1323.823,3548.59454 Z M1284.70467,3554.62854 L1284.78867,3557.82871 L1282.7645,3557.88004 C1281.43683,3557.91737 1280.69367,3557.43554 1280.6645,3556.35171 C1280.63767,3555.27021 1281.35283,3554.71721 1282.67933,3554.68221 L1284.70467,3554.62854 Z M1284.679,3553.56104 L1282.3305,3553.62054 C1280.98533,3553.65437 1280.2515,3553.01271 1280.2235,3551.96037 C1280.199,3550.92671 1280.8955,3550.22904 1282.2395,3550.19404 L1284.58917,3550.13104 L1284.679,3553.56104 Z M1278.97633,3551.96037 C1279.00667,3553.07804 1279.7615,3554.01254 1280.8395,3554.25987 C1280.066,3554.52354 1279.4045,3555.26437 1279.436,3556.44971 C1279.4815,3558.16121 1280.73567,3559.05138 1282.79483,3558.99771 L1286.06733,3558.91604 L1285.8095,3548.98421 L1282.2115,3549.07754 C1280.16983,3549.13121 1278.93083,3550.14971 1278.97633,3551.96037 Z M1262.63483,3557.39121 L1264.8235,3547.70204 L1258.63667,3546.31021 L1258.38467,3547.42904 L1263.336,3548.54437 L1262.5905,3551.84254 L1258.0965,3550.83221 L1257.84683,3551.93937 L1262.342,3552.94737 L1261.6525,3556.00987 L1256.69883,3554.89804 L1256.448,3556.00287 L1262.63483,3557.39121 Z M1238.11383,3547.24354 L1238.6085,3542.7367 L1241.49367,3544.20904 L1238.11383,3547.24354 Z M1237.91083,3548.92004 L1245.9095,3541.85587 L1244.75567,3541.2632 L1242.37917,3543.40871 L1238.72867,3541.5432 L1239.07517,3538.36054 L1237.9225,3537.76787 L1236.841,3548.37404 L1237.91083,3548.92004 Z M1224.27133,3533.07204 C1226.09717,3531.0327 1225.78333,3528.93154 1224.10567,3527.43237 C1222.41517,3525.92503 1220.28717,3525.84687 1218.47183,3527.87103 L1214.45967,3532.34054 L1215.414,3533.19337 L1219.3165,3528.8452 C1220.73167,3527.26553 1222.1515,3527.20953 1223.3485,3528.27704 C1224.54317,3529.34337 1224.64817,3530.7597 1223.22833,3532.33704 L1219.32817,3536.68987 L1220.26967,3537.5287 L1224.27133,3533.07204 Z M1204.66667,3519.3707 L1202.75333,3516.4832 L1210.1115,3511.6357 L1209.40333,3510.5682 L1202.04983,3515.41687 L1200.13533,3512.53053 L1199.19033,3513.15353 L1203.71817,3519.9937 L1204.66667,3519.3707 Z M1195.34967,3493.64219 L1191.82983,3497.8702 L1192.28017,3499.1862 L1196.65633,3493.90003 L1200.53783,3492.57469 L1200.126,3491.38236 L1196.24683,3492.70653 L1189.53033,3491.16769 L1189.97133,3492.45103 L1195.34967,3493.64219 Z" id="Fill-1" fill="#C67732"></path>
        </g>
    </g>
</svg>